<svg width="75" height="88" viewBox="0 0 75 88" fill="none" xmlns="http://www.w3.org/2000/svg">
<path fill-rule="evenodd" clip-rule="evenodd" d="M58.6487 7.11444V34.9165C58.6487 73.6736 42.1575 82.0097 38.0091 82.0097C25.0921 82.0097 37.6184 13.4278 15.293 20.3129C12.9087 21.0237 10.8241 22.4878 9.35685 24.482C7.88959 26.4763 7.12012 28.8916 7.16572 31.3596L7.28629 43.9343L7.44007 58.9382C7.44112 60.7211 8.01997 62.4563 9.09128 63.8881C10.1626 65.3199 11.6696 66.3726 13.3901 66.8907L15.9029 67.6755V53.0165C15.9137 51.3294 16.4627 49.6892 17.4715 48.3307C18.4802 46.972 19.8968 45.965 21.5183 45.4537C23.1398 44.9427 24.8829 44.9534 26.4978 45.4847C28.1127 46.016 29.5164 47.0403 30.5081 48.4113C36.5227 56.6549 37.8506 73.5955 53.5252 79.396C57.2421 80.5534 59.6081 82.0105 64.01 79.0496C66.3217 77.4902 67.4786 75.0284 67.4786 72.2581V15.5502C67.476 14.416 67.2435 13.294 66.7948 12.2507C66.346 11.2074 65.6903 10.2643 64.8666 9.4773C64.0427 8.69033 63.0679 8.07561 61.9997 7.66969C60.9316 7.26377 59.792 7.07495 58.6487 7.11444ZM54.4986 0.671112C56.8364 -0.0215861 59.3053 -0.163031 61.7084 0.258061C64.1112 0.679151 66.3816 1.65113 68.3383 3.09645C70.2952 4.5418 71.8842 6.42049 72.9788 8.58274C74.0734 10.745 74.6433 13.1309 74.6431 15.5502V72.2649C74.6431 74.7028 74.0642 77.1063 72.9534 79.281C71.8425 81.4557 70.2307 83.3406 68.2487 84.783C66.2668 86.2255 63.97 87.1851 61.5446 87.5842C59.1189 87.9831 56.6329 87.8106 54.2872 87.08L11.246 73.6736C8.08219 72.7061 5.31234 70.7628 3.33953 68.1266C1.36673 65.4905 0.293951 62.2989 0.277312 59.0162L0.121789 44.0072L0.00121593 31.4325C-0.060693 27.4363 1.18996 23.5284 3.56449 20.2988C5.939 17.0691 9.30853 14.6928 13.1647 13.5283C30.3316 8.23539 39.7711 5.03365 54.4986 0.671112Z" fill="#C90E0E"/>
</svg>
